<?xml version="1.0" standalone="no"?><!DOCTYPE svg PUBLIC "-//W3C//DTD SVG 1.1//EN" "http://www.w3.org/Graphics/SVG/1.1/DTD/svg11.dtd"><svg t="1639467626026" class="icon" viewBox="0 0 1024 1024" version="1.1" xmlns="http://www.w3.org/2000/svg" p-id="35421" xmlns:xlink="http://www.w3.org/1999/xlink" width="64" height="64"><defs><style type="text/css"></style></defs><path d="M435.3 471.8H102.8c-21 0-38-17.1-38-38V101.3c0-21 17.1-38 38-38h332.5c21 0 38 17.1 38 38v332.5c0 21-17 38-38 38z m-323.1-47.4h313.7V110.7H112.2v313.7z m322.6 533.9H102.2c-21 0-38-17.1-38-38V587.7c0-21 17.1-38 38-38h332.5c21 0 38 17.1 38 38v332.5c0.1 21.1-16.9 38.1-37.9 38.1z m-323.1-47.4h313.7V597.2H111.7v313.7z m810.1 47.4H589.3c-21 0-38-17.1-38-38V587.7c0-21 17.1-38 38-38h332.5c21 0 38 17.1 38 38v332.5c0 21.1-17 38.1-38 38.1z m-323.1-47.4h313.7V597.2H598.7v313.7zM710.4 380.5c-87.4 0-158.5-71.1-158.5-158.5S623 63.5 710.4 63.5s158.5 71 158.5 158.5c0 87.4-71.1 158.5-158.5 158.5z m0-269.8c-61.3 0-111.2 49.9-111.2 111.2 0 61.3 49.9 111.2 111.2 111.2S821.6 283.3 821.6 222c0-61.4-49.9-111.3-111.2-111.3z m0 0" p-id="35422" fill="#000000"></path><path d="M956.8 431.2c5.4 5.8 1.9 17.7-7.7 26.6-9.6 8.9-21.8 11.3-27.1 5.4L790 320c-5.4-5.8-2-17.7 7.7-26.6 9.6-8.8 21.8-11.3 27.1-5.4l132 143.2z m0 0" p-id="35423" fill="#000000"></path></svg>