<svg xmlns="http://www.w3.org/2000/svg" width="13.597" height="13.97" viewBox="0 0 13.597 13.97">
  <defs>
    <style>
      .cls-1 {
        fill: #1890ff;
      }
    </style>
  </defs>
  <g id="icon_storeroom" transform="translate(-187.583 -270.67)">
    <path id="路径_47" data-name="路径 47" class="cls-1" d="M197.35,270.95l-.26-.05-.13-.03-.27-.04-.27-.04-.26-.03a14.66,14.66,0,0,0-1.62-.09h-.45a16.559,16.559,0,0,0-1.73.12l-.28.04-.26.04-.14.03-.26.05c-2.2.45-3.74,1.38-3.83,2.63v.08a.019.019,0,0,0,0,.03v.18a2.251,2.251,0,0,0,1.13,1.55q.135.09.3.18a8.779,8.779,0,0,0,2.8.9l.26.04.28.04.27.04a16.576,16.576,0,0,0,1.76.09,16.325,16.325,0,0,0,2.02-.13l.28-.04.26-.04.19-.03a8.027,8.027,0,0,0,2.91-1.05v2.09c-.03.35-.46.72-1.15,1.04l-.18.07a7.11,7.11,0,0,1-.89.3l-.22.06q-.345.09-.72.15l-.26.05-.26.04c-.17.02-.36.04-.54.06l-.28.03-.28.01-.29.02c-.4.01-.79.01-1.19,0l-.29-.02-.28-.01-.28-.03-.54-.06-.26-.04-.26-.05a6.815,6.815,0,0,1-.71-.15l-.23-.06a7.11,7.11,0,0,1-.89-.3l-.18-.07c-.72-.33-1.15-.72-1.15-1.09V277h-1.13v4.693c.06,1.33,1.8,2.33,4.23,2.74l.26.04.28.04a16.368,16.368,0,0,0,2.03.13,16.625,16.625,0,0,0,2.03-.13l.54-.08.13-.02.26-.05c2.26-.46,3.83-1.45,3.83-2.74v-8.01C201.12,272.35,199.57,271.4,197.35,270.95Zm2.7,10.71c-.03.36-.46.73-1.15,1.04l-.17.07a7.9,7.9,0,0,1-.9.3l-.22.06c-.23.06-.47.11-.72.16l-.26.04-.26.04q-.255.03-.54.06l-.28.03-.28.02-.29.01a11.8,11.8,0,0,1-1.19,0l-.29-.01-.28-.02-.28-.03-.54-.06-.26-.04-.25-.04c-.26-.05-.5-.1-.72-.16l-.23-.06a7.105,7.105,0,0,1-.89-.3l-.18-.07c-.72-.33-1.15-.71-1.15-1.08v-2.43a8.259,8.259,0,0,0,3.1,1.09l.26.04.28.04a16.414,16.414,0,0,0,2.03.12,16.653,16.653,0,0,0,2.03-.12l.27-.04.27-.04a8.269,8.269,0,0,0,3.09-1.09Zm-1.15-6.89-.17.07-.14.06c-.23.09-.49.17-.76.25l-.22.05-.18.05c-.17.04-.35.07-.54.11l-.26.04-.26.04-.18.02c-.12.02-.24.03-.36.04l-.28.03-.28.02-.29.01-.2.01c-.33.01-.66.01-.99-.01l-.29-.01-.28-.02-.28-.03-.18-.01c-.12-.02-.24-.03-.36-.05l-.26-.04-.25-.04-.19-.04a4.539,4.539,0,0,1-.53-.12l-.23-.05-.16-.05a5.62,5.62,0,0,1-.73-.26l-.18-.07-.09-.04c-.67-.32-1.06-.69-1.06-1.04,0-.37.43-.76,1.15-1.08l.18-.08.13-.05c.23-.09.49-.17.76-.25l.23-.06.17-.04c.18-.04.36-.08.55-.11l.25-.05.26-.04.18-.02c.12-.01.24-.03.36-.04l.28-.02.28-.02.29-.02.22-.01h.58c.13,0,.26.01.39.01l.29.02.28.02.28.02.18.02c.12.01.24.03.36.04l.26.04.26.05.18.03.54.12.22.06.16.05a6.436,6.436,0,0,1,.74.25l.17.08.09.04c.67.31,1.06.68,1.06,1.04S199.62,274.44,198.9,274.77Z"/>
    <path id="路径_48" data-name="路径 48" class="cls-1" d="M187.6,273.58a.075.075,0,0,0-.01.05v-.05Z"/>
  </g>
</svg>
