<svg xmlns="http://www.w3.org/2000/svg" width="14.741" height="14.74" viewBox="0 0 14.741 14.74">
  <defs>
    <style>
      .cls-1 {
        fill: #1890ff;
      }

      .cls-2, .cls-4 {
        fill: none;
      }

      .cls-2 {
        stroke: #1890ff;
        stroke-miterlimit: 10;
      }

      .cls-3 {
        stroke: none;
      }
    </style>
  </defs>
  <g id="icon_sampling" transform="translate(-30 -519)">
    <rect id="矩形_20" data-name="矩形 20" class="cls-1" width="1.184" height="11.401" transform="translate(34.533 521.146) rotate(-45)"/>
    <g id="矩形_21" data-name="矩形 21" class="cls-2" transform="translate(40.076 519) rotate(45)">
      <path class="cls-3" d="M1.793,0H4.8A1.793,1.793,0,0,1,6.6,1.793V5.437a0,0,0,0,1,0,0H0a0,0,0,0,1,0,0V1.793A1.793,1.793,0,0,1,1.793,0Z"/>
      <path class="cls-4" d="M1.793.5H4.8A1.293,1.293,0,0,1,6.1,1.793V4.437a.5.5,0,0,1-.5.5H1a.5.5,0,0,1-.5-.5V1.793A1.293,1.293,0,0,1,1.793.5Z"/>
    </g>
    <path id="路径_19" data-name="路径 19" class="cls-1" d="M424.209,157.4l-.834.835.707.707.127-.127,2.348,2.347-6.032,6.032-.8-.8-1.131,1.131a.53.53,0,0,1-.75-.75l1.132-1.131-.8-.8,4.624-4.624-.707-.707-5.332,5.331.8.8-.424.424a1.53,1.53,0,1,0,2.164,2.164l.424-.424.8.8,7.446-7.446Z" transform="translate(-386.693 365.063)"/>
  </g>
</svg>
