<svg xmlns="http://www.w3.org/2000/svg" width="14" height="13.98" viewBox="0 0 14 13.98">
  <defs>
    <style>
      .cls-1 {
        fill: #1890ff;
      }
    </style>
  </defs>
  <path id="icon_eln" class="cls-1" d="M243.37,275.28v4.74h4.75v-4.74Zm3.69,3.68h-2.63v-2.62h2.63Zm-3.69-3.68v4.74h4.75v-4.74Zm3.69,3.68h-2.63v-2.62h2.63Zm-3.69-3.68v4.74h4.75v-4.74Zm3.69,3.68h-2.63v-2.62h2.63Zm5.66-3.47v-1.06H250.8V272.6h-1.97v-1.94h-1.06v1.94h-1.63v-1.94h-1.06v1.94h-2.63v1.06h7.29v7.98h-7.99v-6.06h-1.06v1.53h-1.97v1.06h1.97v1.62h-1.97v1.06h1.97v1.85h1.71v1.94h1.06V282.7h1.62v1.94h1.06V282.7h1.63v1.94h1.06V282.7h1.97v-1.85h1.92v-1.06H250.8v-1.62h1.92v-1.06H250.8v-1.62Zm-9.35-.21v4.74h4.75v-4.74Zm3.69,3.68h-2.63v-2.62h2.63Zm-3.69-3.68v4.74h4.75v-4.74Zm3.69,3.68h-2.63v-2.62h2.63Z" transform="translate(-238.72 -270.66)"/>
</svg>
