<?xml version="1.0" standalone="no"?><!DOCTYPE svg PUBLIC "-//W3C//DTD SVG 1.1//EN" "http://www.w3.org/Graphics/SVG/1.1/DTD/svg11.dtd"><svg t="1639468399283" class="icon" viewBox="0 0 1024 1024" version="1.1" xmlns="http://www.w3.org/2000/svg" p-id="44912" xmlns:xlink="http://www.w3.org/1999/xlink" width="64" height="64"><defs><style type="text/css"></style></defs><path d="M559.471521 621.402302H233.214361v90.860858h321.110948c6.874589-18.478195 16.066251-32.395225 27.212524-48.322816-9.217204-15.582159-16.619672-25.272508-22.066312-42.538042z m0 0" fill="#000000" p-id="44913"></path><path d="M183.895386 839.147499c-31.391769 0-59.633292-20.92298-59.633292-50.59975V217.778038c0-29.686501 28.241523-50.591236 59.633292-50.591237h560.573376c31.389336 0 59.632075 20.904736 59.632076 50.591237v36.925983a103.559144 103.559144 0 0 1 25.572937-3.187951c33.930209 0 53.651475 16.363031 72.247652 41.544316v-74.157261c0-89.055853-65.988516-150.907696-160.126116-150.907696H183.918496c-94.135167 0-159.435252 61.848194-159.435252 150.904047v568.501291c0 89.068016 65.300084 150.894316 159.435252 150.894317h402.786226c-23.722928-31.306627-39.634708-58.40725-44.866061-99.148801H183.895386z m0 0" fill="#000000" p-id="44914"></path><path d="M684.808712 323.342879v-22.393501H233.214361v90.852344h366.435558a243.359489 243.359489 0 0 1 85.158793-68.458843zM233.214361 461.175232v90.86694h315.607141a238.882248 238.882248 0 0 1-0.334485-12.655715c0-31.27257 2.246526-50.806523 13.226165-78.211225H233.214361z m0 0M998.685042 772.06187c-2.365725-25.509689-8.735545-47.331523-19.413538-65.244134-10.555146-17.842065-23.593999-33.381653-39.499697-46.492268-15.797446-12.856406-34.136982-23.983219-54.938332-32.767416-20.401183-8.542152-41.419036-16.667109-63.390476-23.997815v-27.092109c1.677293-39.539835 1.021701-77.894984 2.085973-116.252565 20.615254 0.997375 40.574916 4.413992 51.065598 13.721203 10.557579 9.194094 19.276095 19.490166 26.190823 30.526972 7.076497 11.208305 13.721203 21.347473 20.094673 30.393177 6.48537 9.138144 15.199021 14.09826 26.46206 15.020223 12.063372 0.83074 22.898269-2.652774 32.158044-10.443245 9.262208-7.979 14.495994-19.251769 15.543238-34.194149 1.390243-19.251769-3.414185-36.261877-14.590866-51.532661-11.12438-15.027521-25.096143-27.9788-42.548989-38.593546-17.410275-10.376348-36.18525-18.102355-56.45872-23.090446-20.256442-4.969846-38.16662-7.393954-53.278067-7.474231-2.363292-0.085142-4.596439-0.161769-6.724983-0.232315v-6.856345c0-17.465008-14.161508-31.624084-31.624084-31.624084-17.467441 0-31.624084 14.159075-31.624084 31.624084v11.878493c-17.406626 2.916714-34.455656 7.358681-50.911126 13.108182-23.665762 8.205233-44.103434 19.161762-61.302071 32.351438-17.39203 13.183594-30.041663 28.374101-38.503538 45.544763-8.561613 17.250938-11.086674 36.432161-8.905829 58.927831 3.596631 36.595147 20.986229 67.21699 51.384271 92.928587 27.837708 23.41885 63.293171 43.208229 108.239509 57.614216v163.397992c-19.047429-1.819601-33.253941-5.880863-43.126736-12.105942-10.468788-6.461044-18.002618-13.925544-22.87516-22.572298-4.795914-8.713651-8.140769-17.840849-10.056458-27.309829-1.843927-9.531012-4.187758-18.430759-7.170153-26.71627-2.888738-8.210099-7.257727-15.360791-13.286981-21.253817-6.034118-5.896675-15.477556-9.215988-28.745076-10.218228-13.695661-0.907368-24.804229 2.660072-33.17488 10.628125-8.287943 7.873181-12.930601 19.592336-13.999739 34.841226-0.934127 15.360791 1.772165 31.542591 8.079954 48.314303 6.28103 16.749818 16.158691 32.926753 30.065989 47.949409 13.785668 15.128475 31.698279 27.829194 54.320446 37.705638 22.271869 9.898338 49.093958 15.084688 80.806832 15.189291 3.280391 13.974196 15.812042 24.37852 30.786046 24.37852 16.676839 0 30.325064-12.907491 31.529212-29.281469 0.729787-0.266372 1.458357-0.549773 2.17598-0.839255 29.789887-2.893604 42.171932-4.917545 67.223072-13.631196 25.148445-8.808524 46.471591-20.094673 63.425749-33.20164 17.023488-13.179945 29.153756-28.200169 36.7557-45.036344 7.850071-16.934697 9.968884-35.844683 7.756414-57.990056zM718.322943 563.255342c-13.17508-11.528195-20.052102-26.008376-20.345233-44.054781-0.180014-7.633567 1.729594-14.926568 5.665576-21.996983 3.843543-7.131231 9.416679-13.60687 16.928616-19.408674 7.350167-5.815183 16.342354-10.538118 26.896283-13.925543 3.406887-1.17374 6.993788-2.161385 10.72543-3.007937v124.31549c-16.869016-6.16548-30.201-13.459697-39.870672-21.921572z m173.111452 250.588025c-5.416233 8.46674-12.588818 15.432553-21.23314 21.324363-8.74041 5.805452-18.774975 10.376348-30.402908 13.587409a150.272781 150.272781 0 0 1-18.354132 4.029638v-144.242312a1132.177477 1132.177477 0 0 1 20.268605 7.629919c10.308235 3.980986 19.543684 8.942318 28.037183 14.676007 8.551882 5.986682 15.562698 13.269952 21.138268 21.916707 5.416233 8.623644 8.399843 18.934312 8.578641 30.878485-0.021894 11.927145-2.52871 21.98482-8.032517 30.199784z m0 0" fill="#000000" p-id="44915"></path></svg>