<?xml version="1.0" standalone="no"?><!DOCTYPE svg PUBLIC "-//W3C//DTD SVG 1.1//EN" "http://www.w3.org/Graphics/SVG/1.1/DTD/svg11.dtd"><svg t="1639469070534" class="icon" viewBox="0 0 1024 1024" version="1.1" xmlns="http://www.w3.org/2000/svg" p-id="53017" xmlns:xlink="http://www.w3.org/1999/xlink" width="64" height="64"><defs><style type="text/css"></style></defs><path d="M832.25 62H188.612C118.798 62 62 118.798 62 188.612v643.637c0 69.815 56.798 126.615 126.612 126.615h168.387v-253.51h-84.911v168.598h-83.476c-22.996 0-41.703-18.708-41.703-41.704V188.612c0-22.995 18.708-41.702 41.704-41.702H832.25c22.995 0 41.702 18.709 41.702 41.702v643.637c0 22.997-18.707 41.704-41.702 41.704h-85.1V705.355h-84.911v168.598H441.907v84.911h390.34c69.815 0 126.612-56.799 126.612-126.615V188.612C958.86 118.799 902.062 62 832.247 62z" fill="#000000" p-id="53018"></path><path d="M272.087 229.412h84.911v84.704h-84.911v-84.704z m390.153 0h84.911v84.704H662.24v-84.704zM201.972 677.27h615.269V341.549H201.972V677.27zM333.86 425.153h60.139L285.576 533.576v-60.477l48.284-47.945z m354.052 168.513h-61.973L733.64 486.719v61.539l-45.728 45.408z m-154.791 0h-61.98l169.702-168.513h60.792L533.122 593.666z m-154.796 0h-60.022l169.7-168.513h58.835L378.325 593.666z" fill="#000000" p-id="53019"></path></svg>