<svg xmlns="http://www.w3.org/2000/svg" width="13.99" height="13.61" viewBox="0 0 13.99 13.61">
  <defs>
    <style>
      .cls-1 {
        fill: #000;
      }
    </style>
  </defs>
  <path id="icon_core" class="cls-1" d="M514.7,215.57v3.03h1.13v-3.03Zm-2.84-1.13v4.16h1.13v-4.16Zm-2.84,1.51v2.65h1.14v-2.65Zm5.68-.38v3.03h1.13v-3.03Zm-2.84-1.13v4.16h1.13v-4.16Zm-2.84,1.51v2.65h1.14v-2.65Zm0,0v2.65h1.14v-2.65Zm2.84-1.51v4.16h1.13v-4.16Zm2.84,1.13v3.03h1.13v-3.03Zm-8.27-4.59v1.13h11.86v8.7H506.57v-6.37h-1.14v7.5h13.99V210.98Zm8.27,4.59v3.03h1.13v-3.03Zm-2.84-1.13v4.16h1.13v-4.16Zm-2.84,1.51v2.65h1.14v-2.65Zm5.68-.38v3.03h1.13v-3.03Zm-2.84-1.13v4.16h1.13v-4.16Zm-2.84,1.51v2.65h1.14v-2.65Zm-.75,7.51v1.13h8.32v-1.13Z" transform="translate(-505.43 -210.98)"/>
</svg>
