<?xml version="1.0" standalone="no"?><!DOCTYPE svg PUBLIC "-//W3C//DTD SVG 1.1//EN" "http://www.w3.org/Graphics/SVG/1.1/DTD/svg11.dtd"><svg t="1639468535206" class="icon" viewBox="0 0 1024 1024" version="1.1" xmlns="http://www.w3.org/2000/svg" p-id="45206" xmlns:xlink="http://www.w3.org/1999/xlink" width="64" height="64"><defs><style type="text/css"></style></defs><path d="M154.112 565.504c28.7232-29.2352 63.1296-35.7888 96.1024-18.432 15.1552 8.0384 28.5696 19.968 45.0048 38.0416 6.9632 7.68 32.768 37.888 38.5536 44.4416l5.632 6.2976c26.2144 28.416 48.0256 45.312 71.9872 53.9136 41.0624 14.7456 83.6096 24.832 127.6416 30.208l8.1408 0.8704-1.4336-2.7136c-16.896-32.6144-16.384-61.44 6.2976-86.2208l3.2256-3.328c26.112-25.7536 44.3392-21.8112 118.7328 11.264l57.4976 25.856 18.0736 7.2704c28.672 10.5984 67.2768 19.4048 115.3536 26.112a38.4 38.4 0 0 1 33.1264 37.9904v146.1248a38.4 38.4 0 0 1-38.4 38.4H458.752c-166.2976 0-404.1216-254.6688-304.64-356.096z m59.392 48.9984c-0.512-0.4096-0.2048 0.3584-4.5568 4.8128-10.6496 10.8544 9.216 61.952 61.2864 117.76 59.392 63.488 135.4752 107.7248 188.4672 107.7248h362.5472v-74.8544l-2.304-0.3584c-37.7344-6.656-69.8368-14.848-96.5632-24.7808l-7.8336-3.0208a478.4128 478.4128 0 0 1-12.9024-5.3248l-57.5488-25.8048-16.128-6.912 2.6624 3.328c5.7344 7.0656 12.8 14.848 21.0432 23.2448l5.12 5.12a38.4 38.4 0 0 1-26.1632 65.7408 679.3728 679.3728 0 0 1-245.248-39.1168c-40.3456-14.5408-72.448-40.448-108.9536-81.408l-1.8432-2.048-26.3168-30.5664-9.9328-11.3152c-10.8544-11.9808-18.6368-18.8928-23.9616-21.7088zM514.048 128c183.6544 0 332.8 146.5856 332.8 327.68a322.56 322.56 0 0 1-45.5168 165.5808 38.4 38.4 0 1 1-65.9968-39.3216 245.76 245.76 0 0 0 34.7136-126.208c0-138.4448-114.432-250.9312-256-250.9312-141.5168 0-256 112.4864-256 250.88a38.4 38.4 0 0 1-76.8 0c0-181.0944 149.1456-327.68 332.8-327.68z m81.5616 166.4l54.3232 54.272-30.5152 30.464h35.4304v76.8h-102.4v25.6h102.4v76.8h-102.4v70.4h-76.8v-70.4h-102.4v-76.8h102.4v-25.6h-102.4v-76.8h41.6768l-30.4128-30.4128L438.784 294.4l78.3872 78.3872 78.4384-78.3872z" fill="#000000" p-id="45207"></path></svg>