<svg xmlns="http://www.w3.org/2000/svg" width="13.207" height="14" viewBox="0 0 13.207 14">
  <defs>
    <style>
      .cls-1 {
        fill: #1890ff;
      }
    </style>
  </defs>
  <g id="icon_customer" transform="translate(-241.944 -210.79)">
    <path id="路径_32" data-name="路径 32" class="cls-1" d="M248.55,210.79a3.74,3.74,0,1,0,0,7.48,3.147,3.147,0,0,0,.44-.03H249a3.559,3.559,0,0,0,1.72-.67,3.708,3.708,0,0,0,1.57-3.04A3.747,3.747,0,0,0,248.55,210.79Zm.41,6.45a2.74,2.74,0,1,1,2.33-2.71A2.729,2.729,0,0,1,248.96,217.24Z"/>
    <path id="路径_33" data-name="路径 33" class="cls-1" d="M255.04,221.64a6.972,6.972,0,0,0-4.32-4.07,6.451,6.451,0,0,0-1.76-.33,2.729,2.729,0,0,1-.41.03l-.01.95c.15,0,.3.01.45.02H249a5.939,5.939,0,0,1,5.11,3.76.5.5,0,0,1-.24.65,12.955,12.955,0,0,1-10.65-.01.5.5,0,0,1-.24-.64,5.878,5.878,0,0,1,1.5-2.18l-.68-.74a6.965,6.965,0,0,0-1.75,2.55,1.511,1.511,0,0,0,.76,1.93,14.137,14.137,0,0,0,5.74,1.23,13.892,13.892,0,0,0,5.73-1.23A1.486,1.486,0,0,0,255.04,221.64Z"/>
    <g id="组_25" data-name="组 25">
      <path id="路径_34" data-name="路径 34" class="cls-1" d="M248.547,219.672l.705,1.887-.705.705-.705-.705.705-1.887m0-2.316a.286.286,0,0,0-.272.189l-1.48,3.96a.507.507,0,0,0,.116.536l1.278,1.278a.506.506,0,0,0,.717,0l1.278-1.278a.507.507,0,0,0,.116-.536l-1.48-3.96a.286.286,0,0,0-.273-.189Z"/>
    </g>
  </g>
</svg>
