<svg xmlns="http://www.w3.org/2000/svg" width="12.83" height="14" viewBox="0 0 12.83 14">
  <defs>
    <style>
      .cls-1 {
        fill: #1890ff;
      }
    </style>
  </defs>
  <g id="icon_equipment" transform="translate(-73.7 -210.64)">
    <path id="路径_28" data-name="路径 28" class="cls-1" d="M81.28,212.78v1.16h2.34v-1.16Zm0,0v1.16h2.34v-1.16Zm0,4.27v1.17h2.34v-1.17Zm0,0v1.17h2.34v-1.17Zm0,4.28v1.17h2.34v-1.17Zm0,0v1.17h2.34v-1.17Zm0-8.55v1.16h2.34v-1.16Zm0,4.27v1.17h2.34v-1.17Zm0,4.28v1.17h2.34v-1.17Zm0-4.28v1.17h2.34v-1.17Zm0,4.28v1.17h2.34v-1.17Zm-4.43-10.69v1.16h8.52v3.11H74.87v-3.27H73.7v13H86.53v-14Zm8.52,12.83H74.87v-3.11h10.5Zm0-4.28H74.87v-3.11h10.5Zm-1.75,2.14H81.28v1.17h2.34Zm0-4.28H81.28v1.17h2.34Zm-2.34-4.27v1.16h2.34v-1.16Zm0,8.55v1.17h2.34v-1.17Zm0-4.28v1.17h2.34v-1.17Zm0,4.28v1.17h2.34v-1.17Zm0-4.28v1.17h2.34v-1.17Zm0-4.27v1.16h2.34v-1.16Z"/>
  </g>
</svg>
