<svg xmlns="http://www.w3.org/2000/svg" width="12.35" height="13.95" viewBox="0 0 12.35 13.95">
  <defs>
    <style>
      .cls-1 {
        fill: #000;
      }
    </style>
  </defs>
  <g id="icon_approval" transform="translate(-344.72 -154.73)">
    <path id="路径_14" data-name="路径 14" class="cls-1" d="M350.892,162.119"/>
    <rect id="矩形_17" data-name="矩形 17" class="cls-1" width="2.66" height="1.09" transform="translate(344.72 167.59)"/>
    <rect id="矩形_18" data-name="矩形 18" class="cls-1" width="8.14" height="1.09" transform="translate(348.93 167.59)"/>
    <path id="路径_15" data-name="路径 15" class="cls-1" d="M355.8,162.47h-2.18a.98.98,0,0,1-.87-.9,1.808,1.808,0,0,1,.34-1.38,3.521,3.521,0,0,0,.98-2.81,3.251,3.251,0,0,0-6.39,0,3.553,3.553,0,0,0,.98,2.82,1.774,1.774,0,0,1,.34,1.37.964.964,0,0,1-.92.9h-2.13l-1.04,3.85h11.93Zm-9.47,2.77.46-1.68h1.37a2.061,2.061,0,0,0,1.91-1.8,2.859,2.859,0,0,0-.58-2.27,2.423,2.423,0,0,1-.73-1.96,2.163,2.163,0,0,1,4.23,0,2.423,2.423,0,0,1-.73,1.96,2.859,2.859,0,0,0-.58,2.27l.02.1.02.09a2.025,2.025,0,0,0,1.95,1.61h1.29l.46,1.68Z"/>
    <path id="路径_16" data-name="路径 16" class="cls-1" d="M350.875,155.817"/>
  </g>
</svg>
