<?xml version="1.0" standalone="no"?><!DOCTYPE svg PUBLIC "-//W3C//DTD SVG 1.1//EN" "http://www.w3.org/Graphics/SVG/1.1/DTD/svg11.dtd"><svg t="1639468731589" class="icon" viewBox="0 0 1024 1024" version="1.1" xmlns="http://www.w3.org/2000/svg" p-id="47289" xmlns:xlink="http://www.w3.org/1999/xlink" width="64" height="64"><defs><style type="text/css"></style></defs><path d="M227.856855 569.082209h85.959271c32.632686 0 47.75515 10.346949 47.75515 32.632686 0 20.693899-15.918383 32.632686-47.75515 32.632686H227.856855c-32.632686 0-47.75515-10.346949-47.75515-32.632686s16.714303-32.632686 47.75515-32.632686z m0-169.530784h439.347384c32.632686 0 47.75515 10.346949 47.75515 32.632686 0 20.693899-15.918383 32.632686-47.75515 32.632686H227.856855c-32.632686 0-47.75515-10.346949-47.75515-32.632686 0-20.693899 16.714303-32.632686 47.75515-32.632686z m0-167.938946h439.347384c32.632686 0 47.75515 10.346949 47.75515 32.632686s-15.918383 32.632686-47.75515 32.632687H227.856855c-32.632686 0-47.75515-10.346949-47.75515-32.632687s16.714303-32.632686 47.75515-32.632686z m730.653801 652.653722c-26.265333-42.979635-82.775594-57.30618-126.551148-31.040847-14.326545 7.959192-26.265333 20.693899-33.428606 35.816362l-86.75519-16.714302c0-24.673494-7.163273-50.142908-20.693898-73.224564-15.918383-24.673494-36.612282-43.775555-61.285776-55.714342l39.000039-109.836846c10.346949 0 22.285737-3.183677 31.040848-9.55103 31.040848-19.10206 41.387797-59.693938 23.081656-90.734786-19.10206-31.040848-59.693938-41.387797-91.530705-22.285737-16.714303 10.346949-27.857171 27.061252-31.040848 44.571474l-83.571513 5.571434c-3.183677-7.163273-9.55103-14.326545-16.714303-19.897979-23.081656-16.714303-55.714342-11.142868-72.428644 11.142868s-11.142868 55.714342 11.142868 72.428645c23.081656 16.714303 55.714342 11.142868 72.428645-11.142868 6.367353-7.959192 7.959192-16.714303 9.55103-26.265333l79.591917-5.571434c0.795919 6.367353 3.979596 13.530626 7.959192 19.897979 6.367353 10.346949 15.918383 19.10206 26.265333 23.877575L597.163352 732.245639c-35.816363-7.163273-73.224564-3.183677-106.65317 17.510222-69.244968 41.387797-90.734786 130.530744-50.142908 198.183874 41.387797 67.65313 131.326664 90.734786 200.571632 49.346989 33.428605-19.897979 56.510261-52.530665 66.061291-86.75519l80.387837 15.918384c-0.795919 17.510222 3.183677 36.612282 12.734707 53.326584 26.265333 42.979635 82.775594 57.30618 126.551148 31.040848 43.775555-27.061252 57.30618-82.775594 31.836767-126.551149z" p-id="47290" fill="#000000"></path><path d="M110.060818 906.551938c-19.10206-17.510222-29.449009-40.591878-29.44901-66.061291V166.347107c0-23.877575 10.346949-47.75515 29.44901-66.061291s43.775555-27.061252 69.244968-27.061252h538.83728c26.265333 0 50.938827 9.55103 69.244968 27.061252 19.10206 17.510222 29.449009 40.591878 29.449009 66.061291V453.673929c0 31.040848 12.734707 46.163312 36.612282 46.163312 23.877575 0 35.816363-15.918383 34.224525-46.163312V166.347107c0-42.979635-17.510222-82.775594-49.346989-113.020522-31.040848-30.244929-74.020483-46.959231-119.387876-46.959232H180.897624C133.938393 6.367353 90.958757 23.081656 59.91791 53.326585S10.570921 123.367472 10.570921 166.347107v674.939459c0 42.979635 17.510222 82.775594 49.346989 113.020523s74.020483 46.959231 119.387876 46.959231h126.551148c32.632686-2.387758 47.75515-13.530626 47.755151-34.224525 0-20.693899-15.918383-32.632686-47.755151-32.632686H179.305786c-26.265333-0.795919-50.142908-10.346949-69.244968-27.857171z" p-id="47291" fill="#000000"></path></svg>