<svg xmlns="http://www.w3.org/2000/svg" width="14" height="14" viewBox="0 0 14 14">
  <defs>
    <style>
      .cls-1, .cls-5 {
        fill: #1677ff;
      }

      .cls-2, .cls-3 {
        fill: none;
        stroke-miterlimit: 10;
      }

      .cls-3 {
        stroke: #1677ff;
      }

      .cls-4, .cls-5 {
        stroke: none;
      }
    </style>
  </defs>
  <g id="委托协议" transform="translate(-201.889 -154.68)">
    <path id="路径_5" data-name="路径 5" class="cls-1" d="M208.892,162.119"/>
    <path id="路径_6" data-name="路径 6" class="cls-1" d="M215.733,165.062l-.049-.06c-.1-.1-.675-.611-1.941-1.721-.456-.4-.926-.811-1.025-.9a.919.919,0,0,0-.593-.3l-4.242,0-.056,0a1.127,1.127,0,0,0-1.034,1.074,1.288,1.288,0,0,0,1.012,1.28c.111.02.245.047.4.077.167.034.35.07.541.106l-.028.019h-2.5c-.306-.217-1.18-.845-1.834-1.394l-.023-.018a2.155,2.155,0,0,0-1.244-.482,1.268,1.268,0,0,0-1.1.632.839.839,0,0,0,.1,1.009c.654.574,3.033,2.7,3.2,2.862a.863.863,0,0,0,.755.2h4.8a.548.548,0,0,1,.362.136l.063.055c.232.206.715.633.94.8a.968.968,0,0,0,.605.243.721.721,0,0,0,.6-.316l2.14-2.293a.682.682,0,0,0,.159-1.009Zm-2.936,2.719-.027-.021c-.209-.157-.692-.584-.9-.767l-.065-.057a1.426,1.426,0,0,0-.943-.353h-4.919l-.061.02c-.291-.274-2.423-2.177-3.117-2.788l.009-.03a.391.391,0,0,1,.338-.177,1.291,1.291,0,0,1,.719.306c.83.7,1.947,1.476,1.994,1.509l.113.078h3.037l.967-.642a.533.533,0,0,0,.276-.616.5.5,0,0,0-.493-.337c-.46-.054-.956-.153-1.355-.234-.155-.031-.295-.059-.39-.076a.419.419,0,0,1-.321-.425c0-.16.179-.214.257-.229h4.132a.057.057,0,0,1,.024.016l.033.034c.069.066.43.382,1.061.935.6.524,1.451,1.273,1.769,1.56Z"/>
    <g id="组_5" data-name="组 5">
      <g id="路径_7" data-name="路径 7" class="cls-2">
        <path class="cls-4" d="M210.867,155.5v-.817h-3.95v.817H205.45v2.717h6.883V155.5Z"/>
        <path class="cls-5" d="M 207.9165649414063 155.6800231933594 L 207.9165649414063 156.4966735839844 L 206.9165649414063 156.4966735839844 L 206.4498901367188 156.4966735839844 L 206.4498901367188 157.2133483886719 L 211.3333129882813 157.2133483886719 L 211.3333129882813 156.4966735839844 L 210.8666381835938 156.4966735839844 L 209.8666381835938 156.4966735839844 L 209.8666381835938 155.6800231933594 L 207.9165649414063 155.6800231933594 M 206.9165649414063 154.6800231933594 L 210.8666381835938 154.6800231933594 L 210.8666381835938 155.4966735839844 L 212.3333129882813 155.4966735839844 L 212.3333129882813 158.2133483886719 L 205.4498901367188 158.2133483886719 L 205.4498901367188 155.4966735839844 L 206.9165649414063 155.4966735839844 L 206.9165649414063 154.6800231933594 Z"/>
      </g>
      <path id="路径_8" data-name="路径 8" class="cls-3" d="M203.88,161.976v-5.2h1.57"/>
      <path id="路径_9" data-name="路径 9" class="cls-3" d="M212.33,156.78h1.57v7.325"/>
    </g>
    <rect id="矩形_9" data-name="矩形 9" class="cls-1" width="4.928" height="1.054" transform="translate(206.425 159.605)"/>
  </g>
</svg>
