<svg xmlns="http://www.w3.org/2000/svg" width="13.999" height="14" viewBox="0 0 13.999 14">
  <defs>
    <style>
      .cls-1 {
        fill: #000;
      }
    </style>
  </defs>
  <g id="icon_system" transform="translate(-132.378 -270.652)">
    <path id="路径_46" data-name="路径 46" class="cls-1" d="M133.681,275.755l.036.023a2.285,2.285,0,0,1,.978,1.779l0,.1a2.28,2.28,0,0,1-.981,1.874l-.035.023.047.136q.1.269.218.526l.062.126.06-.011a2.277,2.277,0,0,1,1.928.568l.071.068a2.282,2.282,0,0,1,.635,2l-.011.058.127.063c.172.08.347.153.526.217l.136.047.024-.036a2.285,2.285,0,0,1,1.779-.978l.1,0a2.283,2.283,0,0,1,1.874.981l.023.034.136-.046c.179-.064.354-.137.526-.217l.126-.063-.011-.059a2.283,2.283,0,0,1,.567-1.929l.068-.071a2.288,2.288,0,0,1,2-.636l.061.011.062-.126q.121-.256.218-.525l.046-.137-.034-.023a2.282,2.282,0,0,1-.979-1.779l0-.1,0-.1a2.282,2.282,0,0,1,.979-1.78l.035-.024-.047-.135c-.064-.178-.137-.354-.217-.526l-.063-.126-.06.011a2.277,2.277,0,0,1-1.928-.568l-.071-.068a2.284,2.284,0,0,1-.635-2l.011-.058-.127-.062q-.258-.121-.526-.218l-.136-.047-.024.036a2.282,2.282,0,0,1-1.778.978l-.1,0a2.28,2.28,0,0,1-1.875-.981l-.023-.035-.136.047q-.269.1-.526.218l-.126.062.012.06a2.283,2.283,0,0,1-.567,1.928l-.844-.7a1.188,1.188,0,0,0,.272-1.256l-.03-.072-.2-.445.42-.249a7.057,7.057,0,0,1,1.667-.718l.2-.053.472-.12h0l.174.455a1.187,1.187,0,0,0,2.193.067l.029-.068.175-.454.471.12a7.111,7.111,0,0,1,1.689.67l.175.1.421.249-.2.446a1.188,1.188,0,0,0,1.5,1.6l.072-.03.445-.2.249.42a7.056,7.056,0,0,1,.718,1.667l.053.2.12.472-.455.175a1.191,1.191,0,0,0-.765,1.037l0,.074,0,.074a1.187,1.187,0,0,0,.694,1.006l.071.03.455.175-.12.473a7.034,7.034,0,0,1-.672,1.688l-.1.176-.249.417-.444-.2a1.188,1.188,0,0,0-1.6,1.5l.029.072.2.446-.419.248a7.051,7.051,0,0,1-1.667.718l-.2.053-.472.121-.175-.455a1.187,1.187,0,0,0-2.193-.067l-.028.068-.176.454-.471-.121a7.076,7.076,0,0,1-1.689-.67l-.175-.1-.421-.248.2-.446a1.188,1.188,0,0,0-1.5-1.6l-.071.029-.446.2-.248-.419a7.019,7.019,0,0,1-.719-1.667l-.053-.2-.12-.472.455-.175a1.187,1.187,0,0,0,.067-2.193l-.068-.028-.454-.175.12-.472s.019-.138.064-.454A2.277,2.277,0,0,1,133.681,275.755Zm5.7-.4a2.291,2.291,0,0,1,.085,4.581l-.085,0-.086,0a2.291,2.291,0,0,1,.086-4.58Zm0,1.1a1.194,1.194,0,0,0-.068,2.387l.068,0,.067,0a1.193,1.193,0,0,0,1.125-1.125l0-.067a1.2,1.2,0,0,0-1.194-1.2Zm0,0"/>
  </g>
</svg>
