<?xml version="1.0" standalone="no"?><!DOCTYPE svg PUBLIC "-//W3C//DTD SVG 1.1//EN" "http://www.w3.org/Graphics/SVG/1.1/DTD/svg11.dtd"><svg t="1639468624257" class="icon" viewBox="0 0 1024 1024" version="1.1" xmlns="http://www.w3.org/2000/svg" p-id="45509" xmlns:xlink="http://www.w3.org/1999/xlink" width="64" height="64"><defs><style type="text/css"></style></defs><path d="M373.2 327c42.4 6.1 89.6 16.7 139.3 16.7 49.7 0 96.9-10.7 139.3-16.7 6.7-1 10.5-8.1 7.6-14.2L577.2 121c-26-54.3-103.3-54.3-129.3 0l-82.2 191.8c-3 6.1 0.8 13.3 7.5 14.2z m139.3 444C697.2 771 807 725.3 807 669c0-8.4-3.3-16.5-9.6-24.3l-83.3-216.6c-2-4.1-6.4-6.3-10.9-5.5-55.9 10.5-115.4 25.4-190.7 25.4s-134.9-14.9-190.8-25.4c-4.5-0.8-8.9 1.4-10.9 5.5l-83.3 216.6c-6.2 7.8-9.6 15.9-9.6 24.3 0.1 56.3 109.8 102 294.6 102z" p-id="45510" fill="#000000"></path><path d="M944.5 573h-32.9c-41.9 0-69.4 43.7-51.3 81.5l42.1 88c1.4 3 3.1 5.9 5 8.6 5.9 8.4 9.1 17 9.1 25.9 0 67.4-179.1 122-399.9 122s-399.9-54.6-399.9-122c0-8.9 3.1-17.6 9.1-25.9 1.9-2.7 3.6-5.6 5-8.6l42.1-88c18.1-37.8-9.5-81.5-51.3-81.5H80.5c-11 0-20 9-20 20v314.1c0 31.4 25.5 56.9 56.9 56.9h790.1c31.4 0 56.9-25.5 56.9-56.9V593c0.1-11-8.9-20-19.9-20z" p-id="45511" fill="#000000"></path></svg>