<?xml version="1.0" standalone="no"?><!DOCTYPE svg PUBLIC "-//W3C//DTD SVG 1.1//EN" "http://www.w3.org/Graphics/SVG/1.1/DTD/svg11.dtd"><svg t="1639468085921" class="icon" viewBox="0 0 1024 1024" version="1.1" xmlns="http://www.w3.org/2000/svg" p-id="40263" xmlns:xlink="http://www.w3.org/1999/xlink" width="64" height="64"><defs><style type="text/css"></style></defs><path d="M972.861 258.086c-21.616 0-39.139 17.523-39.139 39.139v527.229c0 25.492-20.665 46.156-46.156 46.156H136.272c-25.402 0-45.994-20.592-45.994-45.994V306.031c0-21.616-17.523-39.139-39.139-39.139-21.616 0-39.139 17.523-39.139 39.139v603.718c0 21.616 17.523 39.139 39.139 39.139h921.722c21.616 0 39.139-17.523 39.139-39.139V297.225c0-21.616-17.523-39.139-39.139-39.139z" fill="#000000" p-id="40264"></path><path d="M737.049 831.472c-64.579 0-117.417-52.838-117.417-117.417V80.004h234.834v634.051c0 64.579-52.838 117.417-117.417 117.417z" fill="#000000" p-id="40265"></path><path d="M560.924 133.82c0-32.424 26.285-58.708 58.708-58.708h234.834c32.424 0 58.708 26.285 58.708 58.708 0 32.424-26.285 58.708-58.708 58.708H619.632c-32.424 0-58.708-26.284-58.708-58.708z" fill="#000000" p-id="40266"></path><path d="M286.951 831.472c-64.579 0-117.417-52.838-117.417-117.417V80.004h234.834v634.051c0 64.579-52.838 117.417-117.417 117.417z" fill="#000000" p-id="40267"></path><path d="M110.826 133.82c0-32.424 26.285-58.708 58.708-58.708h234.834c32.424 0 58.708 26.285 58.708 58.708 0 32.424-26.285 58.708-58.708 58.708H169.534c-32.424 0-58.708-26.284-58.708-58.708z" fill="#000000" p-id="40268"></path></svg>