<svg xmlns="http://www.w3.org/2000/svg" width="14" height="12.946" viewBox="0 0 14 12.946">
  <defs>
    <style>
      .cls-1, .cls-3, .cls-5 {
        fill: #1890ff;
      }

      .cls-2 {
        fill: none;
        stroke-miterlimit: 10;
      }

      .cls-3 {
        opacity: 0.32;
      }

      .cls-4, .cls-5 {
        stroke: none;
      }
    </style>
  </defs>
  <g id="icon_sample" transform="translate(-30 -576)">
    <g id="组_13" data-name="组 13" transform="translate(-457.492 420.793)">
      <rect id="矩形_23" data-name="矩形 23" class="cls-1" width="7.271" height="1.054" transform="translate(490.86 155.207)"/>
      <rect id="矩形_24" data-name="矩形 24" class="cls-1" width="7.271" height="1.054" transform="translate(490.86 156.881)"/>
      <rect id="矩形_25" data-name="矩形 25" class="cls-1" width="1.054" height="2.524" transform="translate(490.856 155.302)"/>
      <rect id="矩形_26" data-name="矩形 26" class="cls-1" width="1.054" height="2.524" transform="translate(497.076 155.302)"/>
    </g>
    <g id="路径_20" data-name="路径 20" class="cls-2" transform="translate(-457.492 420.793)">
      <path class="cls-4" d="M496.622,156.883v6.9a2.125,2.125,0,0,1-4.25,0v-6.9Z"/>
      <path class="cls-5" d="M 493.3720092773438 157.8829956054688 L 493.3720092773438 163.7830047607422 C 493.3720092773438 164.4005584716797 493.8744506835938 164.9029998779297 494.4920043945313 164.9029998779297 C 495.1150817871094 164.9029998779297 495.6220092773438 164.4005584716797 495.6220092773438 163.7830047607422 L 495.6220092773438 157.8829956054688 L 493.3720092773438 157.8829956054688 M 492.3720092773438 156.8829956054688 L 496.6220092773438 156.8829956054688 L 496.6220092773438 163.7830047607422 C 496.6220092773438 164.9530029296875 495.6719970703125 165.9029998779297 494.4920043945313 165.9029998779297 C 493.3219909667969 165.9029998779297 492.3720092773438 164.9530029296875 492.3720092773438 163.7830047607422 L 492.3720092773438 156.8829956054688 Z"/>
    </g>
    <path id="路径_21" data-name="路径 21" class="cls-1" d="M497.622,159.453v1h2.87v6.7h-12v-6.7h2.88v-1h-3.88v8.7h14v-8.7Z" transform="translate(-457.492 420.793)"/>
    <path id="路径_22" data-name="路径 22" class="cls-3" d="M493.372,164.814v-4.428a6.636,6.636,0,0,1,.829.093,4.563,4.563,0,0,1,1.421.436v3.9C495.622,165.431,493.372,165.431,493.372,164.814Z" transform="translate(-457.492 420.793)"/>
  </g>
</svg>
