<svg xmlns="http://www.w3.org/2000/svg" width="11.88" height="13.99" viewBox="0 0 11.88 13.99">
  <defs>
    <style>
      .cls-1 {
        fill: #000;
      }

      .cls-2, .cls-4 {
        fill: none;
      }

      .cls-2 {
        stroke: #000;
        stroke-miterlimit: 10;
      }

      .cls-3 {
        stroke: none;
      }
    </style>
  </defs>
  <g id="icon_quality" transform="translate(-30 -855)">
    <path id="路径_30" data-name="路径 30" class="cls-1" d="M196.29,210.64l-5.94,2.8v2.227h1.02V214.09l4.92-2.33,4.93,2.33v4.17l-.01.1v.1c-.11,2.09-1.95,4.32-4.86,5.1l-.06.02-.06-.02-.14-.04-.13-.04c-2.8-.85-4.54-3.08-4.59-5.14V217.8h-1.02v.663c.13,2.57,2.28,5.19,5.62,6.09l.32.08.32-.08.14-.04c3.37-.96,5.48-3.67,5.48-6.25v-4.82Z" transform="translate(-160.35 644.36)"/>
    <rect id="矩形_33" data-name="矩形 33" class="cls-1" width="1.054" height="2.891" transform="translate(36.084 863.418) rotate(-45)"/>
    <g id="矩形_34" data-name="矩形 34" class="cls-2" transform="translate(33.515 859.107)">
      <rect class="cls-3" width="4.85" height="5.775" rx="2.425"/>
      <rect class="cls-4" x="0.5" y="0.5" width="3.85" height="4.775" rx="1.925"/>
    </g>
  </g>
</svg>
