<?xml version="1.0" standalone="no"?><!DOCTYPE svg PUBLIC "-//W3C//DTD SVG 1.1//EN" "http://www.w3.org/Graphics/SVG/1.1/DTD/svg11.dtd"><svg t="1639468928655" class="icon" viewBox="0 0 1024 1024" version="1.1" xmlns="http://www.w3.org/2000/svg" p-id="52017" xmlns:xlink="http://www.w3.org/1999/xlink" width="64" height="64"><defs><style type="text/css"></style></defs><path d="M663.296 0.256H359.936c-47.872 0-87.04 39.168-87.04 87.04v303.36c0 47.872 39.168 87.04 87.04 87.04h303.36c47.872 0 87.04-39.168 87.04-87.04V87.296c0-48.128-38.912-87.04-87.04-87.04z m-71.424 200.704h-160.512c-14.08 0-25.6-11.52-25.6-25.6s11.52-25.6 25.6-25.6h160.512c14.08 0 25.6 11.52 25.6 25.6s-11.52 25.6-25.6 25.6z m-201.472 345.344H87.04c-47.872 0-87.04 39.168-87.04 87.04v303.36c0 47.872 39.168 87.04 87.04 87.04h303.36c47.872 0 87.04-39.168 87.04-87.04V633.344c0-47.872-39.168-87.04-87.04-87.04z m-71.424 209.152H158.464c-14.08 0-25.6-11.52-25.6-25.6s11.52-25.6 25.6-25.6h160.512c14.08 0 25.6 11.52 25.6 25.6s-11.52 25.6-25.6 25.6zM936.96 546.304H633.6c-47.872 0-87.04 39.168-87.04 87.04v303.36c0 47.872 39.168 87.04 87.04 87.04H936.96c47.872 0 87.04-39.168 87.04-87.04V633.344c0-47.872-39.168-87.04-87.04-87.04z m-71.424 209.152h-160.512c-14.08 0-25.6-11.52-25.6-25.6s11.52-25.6 25.6-25.6h160.512c14.08 0 25.6 11.52 25.6 25.6s-11.52 25.6-25.6 25.6z m0 0" p-id="52018" fill="#000000"></path></svg>